<svg id="SvgjsSvg1020" width="288" height="288" xmlns="http://www.w3.org/2000/svg" version="1.1" xmlns:xlink="http://www.w3.org/1999/xlink" xmlns:svgjs="http://svgjs.com/svgjs"><defs id="SvgjsDefs1021"></defs><g id="SvgjsG1022" transform="matrix(1,0,0,1,0,0)"><svg xmlns="http://www.w3.org/2000/svg" fill="currentColor" fill-rule="evenodd" clip-rule="evenodd" image-rendering="optimizeQuality" shape-rendering="geometricPrecision" text-rendering="geometricPrecision" viewBox="0 0 167.59 205.238" width="288" height="288"><path fill="#ffffff" fill-rule="nonzero" d="M167.59 32.78l-167.59 0 0 114.35c0 9.38 7.68 17.06 17.06 17.06l133.46 0c9.37 0 17.06-7.69 17.06-17.06l0-114.35zm-28.81 28.19c-1.25-1.34-1.17-3.45.17-4.7 1.34-1.25 3.45-1.17 4.7.17l12.75 13.69c1.2 1.29 1.18 3.28-.01 4.54l-12.69 14.29c-1.21 1.37-3.31 1.5-4.69.29-1.37-1.21-1.5-3.31-.29-4.69l10.75-12.11-10.69-11.48zm-27.2-4.53c1.25-1.34 3.35-1.42 4.7-.17 1.34 1.25 1.42 3.35.17 4.7l-10.69 11.48 10.75 12.11c1.21 1.37 1.09 3.48-.29 4.69-1.37 1.21-3.48 1.09-4.69-.29l-12.69-14.29c-1.19-1.26-1.21-3.26-.01-4.54l12.75-13.69zm18.45-3.55c.45-1.78 2.26-2.85 4.04-2.4 1.78.45 2.85 2.26 2.4 4.04l-10.37 40.37c-.45 1.78-2.26 2.85-4.04 2.4-1.78-.45-2.85-2.26-2.4-4.04l10.37-40.37zm-113.82 96.53c-1.84 0-3.33-1.5-3.33-3.33 0-1.84 1.5-3.33 3.33-3.33l61.63 0c1.84 0 3.33 1.5 3.33 3.33 0 1.84-1.5 3.33-3.33 3.33l-61.63 0zm73.53 0c-1.84 0-3.33-1.5-3.33-3.33 0-1.84 1.5-3.33 3.33-3.33l61.63 0c1.84 0 3.33 1.5 3.33 3.33 0 1.84-1.5 3.33-3.33 3.33l-61.63 0zm-73.53-15.84c-1.84 0-3.33-1.5-3.33-3.33 0-1.84 1.5-3.33 3.33-3.33l39.19 0c1.84 0 3.33 1.5 3.33 3.33 0 1.84-1.5 3.33-3.33 3.33l-39.19 0zm51.09 0c-1.84 0-3.33-1.5-3.33-3.33 0-1.84 1.5-3.33 3.33-3.33l84.07 0c1.84 0 3.33 1.5 3.33 3.33 0 1.84-1.5 3.33-3.33 3.33l-84.07 0zm-51.09-15.84c-1.84 0-3.33-1.5-3.33-3.33 0-1.84 1.5-3.33 3.33-3.33l18.27 0c1.84 0 3.33 1.5 3.33 3.33 0 1.84-1.5 3.33-3.33 3.33l-18.27 0zm30.17 0c-1.84 0-3.33-1.5-3.33-3.33 0-1.84 1.5-3.33 3.33-3.33l74.81 0c1.84 0 3.33 1.5 3.33 3.33 0 1.84-1.5 3.33-3.33 3.33l-74.81 0zm86.7 0c-1.84 0-3.33-1.5-3.33-3.33 0-1.84 1.5-3.33 3.33-3.33l18.28 0c1.84 0 3.33 1.5 3.33 3.33 0 1.84-1.5 3.33-3.33 3.33l-18.28 0zm-116.88-15.84c-1.84 0-3.33-1.5-3.33-3.33 0-1.84 1.5-3.33 3.33-3.33l28.94 0c1.84 0 3.33 1.5 3.33 3.33 0 1.84-1.5 3.33-3.33 3.33l-28.94 0zm40.84 0c-1.84 0-3.33-1.5-3.33-3.33 0-1.84 1.5-3.33 3.33-3.33l28.95 0c1.84 0 3.33 1.5 3.33 3.33 0 1.84-1.5 3.33-3.33 3.33l-28.95 0zm-40.84-15.84c-1.84 0-3.33-1.5-3.33-3.33 0-1.84 1.5-3.33 3.33-3.33l9.77 0c1.84 0 3.33 1.5 3.33 3.33 0 1.84-1.5 3.33-3.33 3.33l-9.77 0zm21.67 0c-1.84 0-3.33-1.5-3.33-3.33 0-1.84 1.5-3.33 3.33-3.33l48.12 0c1.84 0 3.33 1.5 3.33 3.33 0 1.84-1.5 3.33-3.33 3.33l-48.12 0zm-21.67-15.84c-1.84 0-3.33-1.5-3.33-3.33 0-1.84 1.5-3.33 3.33-3.33l28.94 0c1.84 0 3.33 1.5 3.33 3.33 0 1.84-1.5 3.33-3.33 3.33l-28.94 0zm40.84 0c-1.84 0-3.33-1.5-3.33-3.33 0-1.84 1.5-3.33 3.33-3.33l28.95 0c1.84 0 3.33 1.5 3.33 3.33 0 1.84-1.5 3.33-3.33 3.33l-28.95 0zm-40.84-15.84c-1.84 0-3.33-1.5-3.33-3.33 0-1.84 1.5-3.33 3.33-3.33l12.83 0c1.84 0 3.33 1.5 3.33 3.33 0 1.84-1.5 3.33-3.33 3.33l-12.83 0zm24.73 0c-1.84 0-3.33-1.5-3.33-3.33 0-1.84 1.5-3.33 3.33-3.33l17.85 0c1.84 0 3.33 1.5 3.33 3.33 0 1.84-1.5 3.33-3.33 3.33l-17.85 0zm29.75 0c-1.84 0-3.33-1.5-3.33-3.33 0-1.84 1.5-3.33 3.33-3.33l15.31 0c1.84 0 3.33 1.5 3.33 3.33 0 1.84-1.5 3.33-3.33 3.33l-15.31 0zM0 26.11l167.59 0 0-9.05c0-9.37-7.69-17.06-17.06-17.06l-133.46 0c-9.39 0-17.06 7.67-17.06 17.06l0 9.05zm62.2-17.56c2.48 0 4.5 2.02 4.5 4.51 0 2.49-2.02 4.5-4.5 4.5-2.49 0-4.51-2.02-4.51-4.5 0-2.49 2.02-4.51 4.51-4.51zm-21.26 0c2.49 0 4.51 2.02 4.51 4.51 0 2.49-2.02 4.5-4.51 4.5-2.48 0-4.5-2.02-4.5-4.5 0-2.49 2.02-4.51 4.5-4.51zm-21.25 0c2.49 0 4.51 2.02 4.51 4.51 0 2.49-2.02 4.5-4.51 4.5-2.49 0-4.5-2.02-4.5-4.5 0-2.49 2.02-4.51 4.5-4.51z" class="color000 svgShape"></path></svg></g></svg>