<svg xmlns="http://www.w3.org/2000/svg" fill="currentColor" viewBox="0 0 64 80" x="0px" y="0px"><g><path d="M44.051,37.808a1,1,0,0,1,0-1.414l.847-.849L39.032,34.18l1.347,5.884.843-.842a1,1,0,0,1,1.414,0L49,45.586l1.414-1.415Z"/><path d="M47.841,34.7a1,1,0,0,1-.255.982L46.172,37.1l2.9,2.9H52V18H12V40H38.313l-1.587-6.933a1,1,0,0,1,1.2-1.2l9.178,2.135A1,1,0,0,1,47.841,34.7ZM49,28a1,1,0,1,1-1,1A1,1,0,0,1,49,28ZM23.9,25.447l-2,4a1,1,0,0,1-1.79,0L19,27.236,17.9,29.447a1.042,1.042,0,0,1-1.79,0l-2-4a1,1,0,0,1,1.79-.894L17,26.764l1.105-2.211a1.042,1.042,0,0,1,1.79,0L21,26.764l1.105-2.211a1,1,0,0,1,1.79.894ZM25,30a1,1,0,1,1,1-1A1,1,0,0,1,25,30Zm10.9-4.553-2,4a1,1,0,0,1-1.79,0L31,27.236,29.9,29.447a1.042,1.042,0,0,1-1.79,0l-2-4a1,1,0,0,1,1.79-.894L29,26.764l1.105-2.211a1.042,1.042,0,0,1,1.79,0L33,26.764l1.1-2.211a1,1,0,0,1,1.79.894ZM37,30a1,1,0,1,1,1-1A1,1,0,0,1,37,30Zm8,0a1,1,0,0,1-.9-.553L43,27.236l-1.1,2.211a1.042,1.042,0,0,1-1.79,0l-2-4a1,1,0,0,1,1.79-.894L41,26.764l1.1-2.211a1.042,1.042,0,0,1,1.79,0L45,26.764l1.1-2.211a1,1,0,0,1,1.79.894l-2,4A1,1,0,0,1,45,30Z"/><path d="M51,12H13a1,1,0,0,0-1,1v3H52V13A1,1,0,0,0,51,12ZM15,15H14a1,1,0,0,1,0-2h1a1,1,0,0,1,0,2Zm4,0H18a1,1,0,0,1,0-2h1a1,1,0,0,1,0,2Zm4,0H22a1,1,0,0,1,0-2h1a1,1,0,0,1,0,2Z"/><path d="M51,10a3,3,0,0,1,3,3V40h2V8H8V40h2V13a3,3,0,0,1,3-3Z"/><path d="M41.929,41.343l-1.414,1.414a1,1,0,0,1-1.682-.484L38.77,42H32a3,3,0,0,1,0,6H49a1,1,0,0,1-.707-.293Z"/><path d="M16,59v1H48V59a1,1,0,0,0-1-1H17A1,1,0,0,0,16,59Z"/><circle cx="32" cy="45" r="1"/><polygon points="24.781 50 23.281 56 39.719 56 38.219 50 24.781 50"/><path d="M60,7a3,3,0,0,0-3-3H7A3,3,0,0,0,4,7V45a3,3,0,0,0,3,3H32a3,3,0,0,1,0-6H7a1,1,0,0,1-1-1V7A1,1,0,0,1,7,6H57a1,1,0,0,1,1,1V41a1,1,0,0,1-1,1H51.071l1.464,1.464a1,1,0,0,1,0,1.414l-2.828,2.829A1,1,0,0,1,49,48h8a3,3,0,0,0,3-3Z"/></g></svg>
