<svg id="SvgjsSvg1026" width="288" height="288" xmlns="http://www.w3.org/2000/svg" version="1.1" xmlns:xlink="http://www.w3.org/1999/xlink" xmlns:svgjs="http://svgjs.com/svgjs"><defs id="SvgjsDefs1027"></defs><g id="SvgjsG1028"><svg xmlns="http://www.w3.org/2000/svg" fill="currentColor" viewBox="0 0 64 80" width="288" height="288"><path d="M44.051,37.808a1,1,0,0,1,0-1.414l.847-.849L39.032,34.18l1.347,5.884.843-.842a1,1,0,0,1,1.414,0L49,45.586l1.414-1.415Z" fill="#ffffff" class="color000 svgShape"></path><path d="M47.841 34.7a1 1 0 01-.255.982L46.172 37.1l2.9 2.9H52V18H12V40H38.313l-1.587-6.933a1 1 0 011.2-1.2l9.178 2.135A1 1 0 0147.841 34.7zM49 28a1 1 0 11-1 1A1 1 0 0149 28zM23.9 25.447l-2 4a1 1 0 01-1.79 0L19 27.236 17.9 29.447a1.042 1.042 0 01-1.79 0l-2-4a1 1 0 011.79-.894L17 26.764l1.105-2.211a1.042 1.042 0 011.79 0L21 26.764l1.105-2.211a1 1 0 011.79.894zM25 30a1 1 0 111-1A1 1 0 0125 30zm10.9-4.553l-2 4a1 1 0 01-1.79 0L31 27.236 29.9 29.447a1.042 1.042 0 01-1.79 0l-2-4a1 1 0 011.79-.894L29 26.764l1.105-2.211a1.042 1.042 0 011.79 0L33 26.764l1.1-2.211a1 1 0 011.79.894zM37 30a1 1 0 111-1A1 1 0 0137 30zm8 0a1 1 0 01-.9-.553L43 27.236l-1.1 2.211a1.042 1.042 0 01-1.79 0l-2-4a1 1 0 011.79-.894L41 26.764l1.1-2.211a1.042 1.042 0 011.79 0L45 26.764l1.1-2.211a1 1 0 011.79.894l-2 4A1 1 0 0145 30zM51 12H13a1 1 0 00-1 1v3H52V13A1 1 0 0051 12zM15 15H14a1 1 0 010-2h1a1 1 0 010 2zm4 0H18a1 1 0 010-2h1a1 1 0 010 2zm4 0H22a1 1 0 010-2h1a1 1 0 010 2z" fill="#ffffff" class="color000 svgShape"></path><path d="M51 10a3 3 0 013 3V40h2V8H8V40h2V13a3 3 0 013-3zM41.929 41.343l-1.414 1.414a1 1 0 01-1.682-.484L38.77 42H32a3 3 0 010 6H49a1 1 0 01-.707-.293zM16 59v1H48V59a1 1 0 00-1-1H17A1 1 0 0016 59z" fill="#ffffff" class="color000 svgShape"></path><circle cx="32" cy="45" r="1" fill="#ffffff" class="color000 svgShape"></circle><polygon points="24.781 50 23.281 56 39.719 56 38.219 50 24.781 50" fill="#ffffff" class="color000 svgShape"></polygon><path d="M60,7a3,3,0,0,0-3-3H7A3,3,0,0,0,4,7V45a3,3,0,0,0,3,3H32a3,3,0,0,1,0-6H7a1,1,0,0,1-1-1V7A1,1,0,0,1,7,6H57a1,1,0,0,1,1,1V41a1,1,0,0,1-1,1H51.071l1.464,1.464a1,1,0,0,1,0,1.414l-2.828,2.829A1,1,0,0,1,49,48h8a3,3,0,0,0,3-3Z" fill="#ffffff" class="color000 svgShape"></path></svg></g></svg>